<?xml version="1.0" encoding="UTF-8" standalone="no"?><!DOCTYPE svg PUBLIC "-//W3C//DTD SVG 1.1//EN" "http://www.w3.org/Graphics/SVG/1.1/DTD/svg11.dtd"><svg width="100%" height="100%" viewBox="0 0 128 128" version="1.1" xmlns="http://www.w3.org/2000/svg" xmlns:xlink="http://www.w3.org/1999/xlink" xml:space="preserve" xmlns:serif="http://www.serif.com/" style="fill-rule:evenodd;clip-rule:evenodd;stroke-linejoin:round;stroke-miterlimit:2;"><rect id="moonshot-logo" x="-0" y="0" width="127.424" height="127.618" style="fill:none;"/><clipPath id="_clip1"><rect x="-0" y="0" width="127.424" height="127.618"/></clipPath><g clip-path="url(#_clip1)"><g><clipPath id="_clip2"><rect x="1" y="0" width="782.881" height="127.617"/></clipPath><g clip-path="url(#_clip2)"><path d="M116.013,25.756c-8.278,-11.153 -20.236,-19.695 -34.693,-23.567c-14.457,-3.873 -29.088,-2.455 -41.831,3.065l76.525,20.502Zm-103.814,1.942c5.658,-8.242 13.131,-14.946 21.697,-19.692l56.374,15.106c-3.699,2.134 -7.663,5.812 -10.73,9.854l46.352,12.42c1.316,4.348 2.172,8.855 2.532,13.455l-116.225,-31.142Zm114.229,52.622c-0.654,2.444 -1.442,4.817 -2.354,7.111l-122.402,-32.796c0.357,-2.444 0.862,-4.891 1.516,-7.336c1.538,-5.743 3.812,-11.09 6.696,-15.968l59.898,16.05c-2.398,3.428 -4.581,7.152 -6.504,11.137l64.201,17.204c-0.294,1.535 -0.645,3.068 -1.055,4.603l0.003,-0.005Zm-121.724,4.883c-2.969,-8.314 -4.235,-17.306 -3.499,-26.443l56.489,15.136c-0.406,1.285 -0.788,2.587 -1.143,3.908c-0.72,2.689 -1.307,5.372 -1.763,8.036l60.999,16.344c-2.84,3.771 -6.075,7.188 -9.626,10.203l-101.457,-27.185Zm43.592,40.225c-19.256,-5.161 -34.081,-18.596 -41.672,-35.457l45.968,12.318c-0.074,4.287 0.192,8.465 0.777,12.472l33.4,8.948c-11.922,4.383 -25.268,5.257 -38.473,1.719Z" style="fill:#040000;"/></g></g></g></svg>